<svg width="369.67" height="73.75" viewBox="0 0 369.66666666666663 73.75249232759921" preserveAspectRatio="xMidYMid meet"><defs id="SvgjsDefs1011"></defs><g id="SvgjsG1012" featurekey="S6ay6y-0" transform="matrix(0.9231870770454407,0,0,0.9231870770454407,0,0)" fill="#ffaa64"><g xmlns="http://www.w3.org/2000/svg"><path d="M83.26,10.056c-0.662,0-1.198,0.537-1.198,1.198V86.2c0,2.571,1.629,3.744,3.141,3.744c0.788,0,1.591-0.296,2.323-0.855   c2.624-2.004,3.901-6.669,3.901-14.255c0-2.6-0.674-8.884-1.167-13.475c-0.137-1.282-0.261-2.431-0.35-3.314h4.026   c0.661,0,1.198-0.537,1.198-1.198V25.991C95.133,15.64,89.015,10.056,83.26,10.056z M92.737,55.649h-4.141   c-0.334,0-0.652,0.141-0.878,0.384c-0.228,0.243-0.342,0.574-0.317,0.905c0.066,0.852,0.251,2.584,0.476,4.678   c0.487,4.534,1.153,10.747,1.153,13.219c0,8.342-1.609,11.318-2.958,12.351c-0.306,0.231-0.614,0.362-0.869,0.362   c-0.708,0-0.744-1.123-0.744-1.348V12.558c4.207,0.747,8.279,5.402,8.279,13.433V55.649z"></path><path d="M65.399,39.122c-0.184-0.033-1.818-0.324-2.629-0.324c-2.039,0-3.821,1.095-5.707,2.256   c-1.591,0.978-3.238,1.94-5.026,2.227c-0.468-2.631-1.418-4.979-2.517-6.951c2.038,0.248,3.951,0.415,5.651,0.415   c10.336,0,15.731-4.676,17.49-15.163c0.101-0.598-0.261-1.177-0.841-1.348c-2.264-0.668-4.239-0.992-6.04-0.992   c-5.567,0-8.305,3.18-10.434,6.158c-2.448,3.406-5.193,5.725-7.858,7.753c-0.668-0.917-1.29-1.69-1.775-2.289l-0.587-0.733   c-0.403-0.528-1.153-0.626-1.679-0.222c-0.526,0.403-0.626,1.155-0.222,1.679l0.626,0.785c1.587,1.96,4.712,5.861,5.748,10.875   c-1.673-0.318-3.3-1.103-4.885-1.88c-1.922-0.944-3.737-1.835-5.56-1.835c-0.577,0-2.522,0.234-2.682,0.265   c-11.712,3.097-12.305,18.759-12.305,21.867c0,7.059,4.433,18.664,7.107,21.66c1.47,1.654,3.095,3.345,5.353,4.313   c1.738,0.743,3.592,0.967,5.383,1.183l2.537,0.343c2.76,0.399,5.366,0.78,7.287,0.78c0.672,0,2.86-0.284,5.612-0.914   c0.652-0.15,1.395-0.184,2.155-0.228c1.142-0.062,2.323-0.128,3.436-0.49c3.751-1.211,6.514-4.469,7.544-5.839   C74.328,77.809,76.4,67.04,76.4,61.379C76.4,60.673,76.279,44.045,65.399,39.122z M57.295,26.794   c2.332-3.265,4.47-5.157,8.485-5.157c1.275,0,2.726,0.204,4.322,0.61c-2.011,10.033-7.516,13.21-19.839,11.793   C52.615,32.154,55.088,29.865,57.295,26.794z M68.652,81.054c-0.685,0.908-3.164,3.951-6.35,4.98   c-0.819,0.265-1.843,0.321-2.834,0.378c-0.899,0.05-1.777,0.106-2.553,0.281c-2.657,0.608-4.684,0.855-5.08,0.855   c-1.746,0-4.271-0.368-6.942-0.755l-2.595-0.352c-1.699-0.203-3.305-0.397-4.728-1.005c-1.805-0.774-3.163-2.194-4.508-3.704   c-2.33-2.612-6.499-13.728-6.499-20.065c0-2.799,0.507-16.903,10.359-19.521c0.008,0,1.721-0.215,2.231-0.215   c1.267,0,2.838,0.772,4.503,1.588c2.181,1.072,4.654,2.286,7.397,2.286c2.86,0,5.199-1.439,7.263-2.709   c1.59-0.977,3.091-1.9,4.451-1.9c0.451,0,1.59,0.176,1.918,0.198c9.211,4.2,9.317,19.343,9.317,19.986   C74.004,67.52,71.741,77.203,68.652,81.054z"></path><path d="M37.377,44.523c-8.181,2.501-8.416,15.651-8.416,17.143c0,0.662,0.537,1.198,1.198,1.198c0.661,0,1.198-0.537,1.198-1.198   c0-0.521,0.076-12.819,6.719-14.854c0.633-0.19,0.989-0.861,0.796-1.493C38.68,44.685,38.009,44.328,37.377,44.523z"></path><path d="M21.244,10.056c-0.661,0-1.198,0.537-1.198,1.198v14.728h-2.663V11.254c0-0.661-0.537-1.198-1.198-1.198   c-0.661,0-1.198,0.537-1.198,1.198v14.728h-2.662V11.254c0-0.661-0.537-1.198-1.198-1.198c-0.661,0-1.198,0.537-1.198,1.198v14.728   H7.263V11.254c0-0.661-0.537-1.198-1.198-1.198c-0.661,0-1.198,0.537-1.198,1.198v18c0,4.528,2.158,6.366,3.732,7.708   c1.217,1.036,1.75,1.543,1.663,2.687c-0.184,2.437-1.601,29.388-1.601,35.142c0,4.556,0.487,15.154,4.993,15.154   c4.506,0,4.993-10.598,4.993-15.154c0-5.754-1.417-32.705-1.601-35.142c-0.088-1.144,0.446-1.651,1.663-2.687   c1.574-1.342,3.732-3.18,3.732-7.708v-18C22.442,10.592,21.905,10.056,21.244,10.056z M20.045,29.254   c0,3.42-1.404,4.617-2.891,5.884c-1.256,1.072-2.68,2.286-2.498,4.692c0.233,3.057,1.595,29.513,1.595,34.962   c0,7.905-1.512,12.757-2.596,12.757c-1.084,0-2.596-4.852-2.596-12.757c0-5.448,1.362-31.905,1.595-34.962   c0.182-2.406-1.242-3.62-2.498-4.692c-1.487-1.267-2.891-2.464-2.891-5.884v-0.876h12.782V29.254z"></path></g></g><g id="SvgjsG1013" featurekey="j5pGhi-0" transform="matrix(2.5305025577545166,0,0,2.5305025577545166,100.23221428793622,6.508983453402225)" fill="#ff8264"><path d="M1.0938 19.42383 l2.0605 -14.482 l0.23438 0 l5.8887 11.875 l5.8203 -11.875 l0.23438 0 l2.0898 14.482 l-1.4355 0 l-1.416 -10.361 l-5.1172 10.361 l-0.37109 0 l-5.1855 -10.43 l-1.4063 10.43 l-1.3965 0 z M29.052859375 15.6348 l1.1523 0.61523 q-0.556640625 1.123046875 -1.30859375 1.806640625 t-1.6895 1.04 t-2.1191 0.35645 q-2.6171875 0 -4.091796875 -1.713867188 t-1.4746 -3.8721 q0 -2.041015625 1.25 -3.6328125 q1.58203125 -2.03125 4.248046875 -2.03125 q2.724609375 0 4.365234375 2.080078125 q1.162109375 1.46484375 1.171875 3.65234375 l-9.6191 0 q0.0390625 1.875 1.19140625 3.071289063 t2.8418 1.1963 q0.8203125 0 1.591796875 -0.2880859375 t1.3135 -0.75684 t1.1768 -1.5234 z M29.052859375 12.7539 q-0.2734375 -1.103515625 -0.80078125 -1.762695313 t-1.3965 -1.0645 t-1.8262 -0.40527 q-1.572265625 0 -2.705078125 1.015625 q-0.8203125 0.7421875 -1.240234375 2.216796875 l7.9688 0 z M33.115196875 15.3809 l-0.019531 -1.1426 q-0.029296875 -0.83984375 0.068359375 -1.42578125 q0.21484375 -1.845703125 0.9375 -2.705078125 q0.703125 -0.751953125 1.435546875 -1.162109375 q1.2109375 -0.517578125 2.763671875 -0.48828125 q1.2109375 0 2.241210938 0.6103515625 t1.4697 1.6406 t0.43945 3.2275 l0 5.5078 l-1.3672 0 l0 -5.1074 q0 -1.85546875 -0.15625 -2.48046875 q-0.244140625 -1.064453125 -0.966796875 -1.508789063 t-2.1387 -0.44434 q-1.25 0 -2.2265625 0.72265625 t-0.9082 1.9727 q-0.185546875 0.80078125 -0.185546875 2.919921875 l0 3.9258 l-1.3867 0 l0 -4.0625 z M45.205121875 8.477 l1.3867 0 l0 5 q0 1.8359375 0.1953125 2.51953125 q0.29296875 0.986328125 1.123046875 1.557617188 t1.9922 0.57129 q1.15234375 0 1.953125 -0.556640625 t1.1035 -1.4648 q0.21484375 -0.615234375 0.21484375 -2.626953125 l0 -5 l1.4063 0 l0 5.2637 q0 2.216796875 -0.5224609375 3.334960938 t-1.5576 1.748 t-2.5977 0.62988 q-1.572265625 0 -2.6171875 -0.6298828125 t-1.5625 -1.7676 t-0.51758 -3.4229 l0 -5.1563 z M57.18755 19.42383 l2.0605 -14.482 l0.23438 0 l5.8887 11.875 l5.8203 -11.875 l0.23438 0 l2.0898 14.482 l-1.4355 0 l-1.416 -10.361 l-5.1172 10.361 l-0.37109 0 l-5.1855 -10.43 l-1.4063 10.43 l-1.3965 0 z M81.191409375 8.203 q2.470703125 0 4.1015625 1.787109375 q1.50390625 1.630859375 1.50390625 3.876953125 q0.01953125 5.546875 0 5.634765625 l-1.4551 0 l0 -2.4316 q-1.142578125 2.12890625 -4.150390625 2.3828125 q-2.4609375 0 -4.018554688 -1.674804688 t-1.5576 -3.9111 q0 -2.2265625 1.474609375 -3.8671875 q1.630859375 -1.796875 4.1015625 -1.796875 z M81.191409375 9.551 q-1.708984375 0 -2.939453125 1.26953125 t-1.2305 3.0664 q0 1.162109375 0.6298828125 2.236328125 t2.1338 1.8164 q3.76953125 0.83984375 5.361328125 -3.427734375 q0.087890625 -1.3671875 -0.29296875 -2.6171875 q-0.2734375 -0.56640625 -0.751953125 -1.07421875 q-1.201171875 -1.26953125 -2.91015625 -1.26953125 z M93.330053125 17.9297 q-1.015625 0.546875 -1.9921875 0.087890625 q-1.19140625 -0.908203125 -1.1328125 -2.587890625 l0 -4.5313 l2.5391 0 l0 -1.1816 l-2.5488 0 l0 -5.1758 l-1.3867 0 l0 11.123 q-0.01953125 1.171875 0.537109375 2.1484375 q0.91796875 1.552734375 2.5 1.640625 q0.83984375 0.029296875 1.9140625 -0.380859375 q-0.166015625 -0.41015625 -0.4296875 -1.142578125 z M104.970828125 15.6348 l1.1523 0.61523 q-0.556640625 1.123046875 -1.30859375 1.806640625 t-1.6895 1.04 t-2.1191 0.35645 q-2.6171875 0 -4.091796875 -1.713867188 t-1.4746 -3.8721 q0 -2.041015625 1.25 -3.6328125 q1.58203125 -2.03125 4.248046875 -2.03125 q2.724609375 0 4.365234375 2.080078125 q1.162109375 1.46484375 1.171875 3.65234375 l-9.6191 0 q0.0390625 1.875 1.19140625 3.071289063 t2.8418 1.1963 q0.8203125 0 1.591796875 -0.2880859375 t1.3135 -0.75684 t1.1768 -1.5234 z M104.970828125 12.7539 q-0.2734375 -1.103515625 -0.80078125 -1.762695313 t-1.3965 -1.0645 t-1.8262 -0.40527 q-1.572265625 0 -2.705078125 1.015625 q-0.8203125 0.7421875 -1.240234375 2.216796875 l7.9688 0 z"></path></g></svg>