<svg viewBox="0 0 370 74" xmlns="http://www.w3.org/2000/svg">
  <!-- Fork, Knife, Apple icon group -->
  <g fill="#ffaa64">
    <!-- Knife -->
    <path d="M83.26,10.056c-0.662,0-1.198,0.537-1.198,1.198V86.2c0,2.571,1.629,3.744,3.141,3.744c0.788,0,1.591-0.296,2.323-0.855c2.624-2.004,3.901-6.669,3.901-14.255c0-2.6-0.674-8.884-1.167-13.475c-0.137-1.282-0.261-2.431-0.35-3.314h4.026c0.661,0,1.198-0.537,1.198-1.198V25.991C95.133,15.64,89.015,10.056,83.26,10.056z M92.737,55.649h-4.141c-0.334,0-0.652,0.141-0.878,0.384c-0.228,0.243-0.342,0.574-0.317,0.905c0.066,0.852,0.251,2.584,0.476,4.678c0.487,4.534,1.153,10.747,1.153,13.219c0,8.342-1.609,11.318-2.958,12.351c-0.306,0.231-0.614,0.362-0.869,0.362c-0.708,0-0.744-1.123-0.744-1.348V12.558c4.207,0.747,8.279,5.402,8.279,13.433V55.649z"/>
    
    <!-- Apple -->
    <path d="M65.399,39.122c-0.184-0.033-1.818-0.324-2.629-0.324c-2.039,0-3.821,1.095-5.707,2.256c-1.591,0.978-3.238,1.94-5.026,2.227c-0.468-2.631-1.418-4.979-2.517-6.951c2.038,0.248,3.951,0.415,5.651,0.415c10.336,0,15.731-4.676,17.49-15.163c0.101-0.598-0.261-1.177-0.841-1.348c-2.264-0.668-4.239-0.992-6.04-0.992c-5.567,0-8.305,3.18-10.434,6.158c-2.448,3.406-5.193,5.725-7.858,7.753c-0.668-0.917-1.29-1.69-1.775-2.289l-0.587-0.733c-0.403-0.528-1.153-0.626-1.679-0.222c-0.526,0.403-0.626,1.155-0.222,1.679l0.626,0.785c1.587,1.96,4.712,5.861,5.748,10.875c-1.673-0.318-3.3-1.103-4.885-1.88c-1.922-0.944-3.737-1.835-5.56-1.835c-0.577,0-2.522,0.234-2.682,0.265c-11.712,3.097-12.305,18.759-12.305,21.867c0,7.059,4.433,18.664,7.107,21.66c1.47,1.654,3.095,3.345,5.353,4.313c1.738,0.743,3.592,0.967,5.383,1.183l2.537,0.343c2.76,0.399,5.366,0.78,7.287,0.78c0.672,0,2.86-0.284,5.612-0.914c0.652-0.15,1.395-0.184,2.155-0.228c1.142-0.062,2.323-0.128,3.436-0.49c3.751-1.211,6.514-4.469,7.544-5.839C74.328,77.809,76.4,67.04,76.4,61.379C76.4,60.673,76.279,44.045,65.399,39.122z"/>
    
    <!-- Fork -->
    <path d="M21.244,10.056c-0.661,0-1.198,0.537-1.198,1.198v14.728h-2.663V11.254c0-0.661-0.537-1.198-1.198-1.198c-0.661,0-1.198,0.537-1.198,1.198v14.728h-2.662V11.254c0-0.661-0.537-1.198-1.198-1.198c-0.661,0-1.198,0.537-1.198,1.198v14.728H7.263V11.254c0-0.661-0.537-1.198-1.198-1.198c-0.661,0-1.198,0.537-1.198,1.198v18c0,4.528,2.158,6.366,3.732,7.708c1.217,1.036,1.75,1.543,1.663,2.687c-0.184,2.437-1.601,29.388-1.601,35.142c0,4.556,0.487,15.154,4.993,15.154c4.506,0,4.993-10.598,4.993-15.154c0-5.754-1.417-32.705-1.601-35.142c-0.088-1.144,0.446-1.651,1.663-2.687c1.574-1.342,3.732-3.18,3.732-7.708v-18C22.442,10.592,21.905,10.056,21.244,10.056z"/>
  </g>
  
  <!-- MenuMate text -->
  <g fill="#ff8264" transform="translate(100, 6)">
    <path d="M1.0938 19.42383 l2.0605 -14.482 l0.23438 0 l5.8887 11.875 l5.8203 -11.875 l0.23438 0 l2.0898 14.482 l-1.4355 0 l-1.416 -10.361 l-5.1172 10.361 l-0.37109 0 l-5.1855 -10.43 l-1.4063 10.43 l-1.3965 0 z M29.053 15.635 l1.152 0.615 q-0.557 1.123 -1.309 1.807 t-1.689 1.04 t-2.119 0.356 q-2.617 0 -4.092 -1.714 t-1.475 -3.872 q0 -2.041 1.25 -3.633 q1.582 -2.031 4.248 -2.031 q2.725 0 4.365 2.08 q1.162 1.465 1.172 3.652 l-9.619 0 q0.039 1.875 1.191 3.071 t2.842 1.196 q0.82 0 1.592 -0.288 t1.314 -0.757 t1.177 -1.523 z M29.053 12.754 q-0.273 -1.104 -0.801 -1.763 t-1.397 -1.065 t-1.826 -0.405 q-1.572 0 -2.705 1.016 q-0.82 0.742 -1.24 2.217 l7.969 0 z M33.115 15.381 l-0.02 -1.143 q-0.029 -0.84 0.068 -1.426 q0.215 -1.846 0.938 -2.705 q0.703 -0.752 1.436 -1.162 q1.211 -0.518 2.764 -0.488 q1.211 0 2.241 0.61 t1.47 1.641 t0.439 3.228 l0 5.508 l-1.367 0 l0 -5.107 q0 -1.855 -0.156 -2.48 q-0.244 -1.065 -0.967 -1.509 t-2.139 -0.444 q-1.25 0 -2.227 0.723 t-0.908 1.973 q-0.186 0.801 -0.186 2.92 l0 3.926 l-1.387 0 l0 -4.063 z M45.205 8.477 l1.387 0 l0 5 q0 1.836 0.195 2.52 q0.293 0.986 1.123 1.558 t1.992 0.571 q1.152 0 1.953 -0.557 t1.104 -1.465 q0.215 -0.615 0.215 -2.627 l0 -5 l1.406 0 l0 5.264 q0 2.217 -0.522 3.335 t-1.558 1.748 t-2.598 0.63 q-1.572 0 -2.617 -0.63 t-1.563 -1.768 t-0.518 -3.423 l0 -5.156 z M57.188 19.424 l2.061 -14.482 l0.234 0 l5.889 11.875 l5.82 -11.875 l0.234 0 l2.09 14.482 l-1.436 0 l-1.416 -10.361 l-5.117 10.361 l-0.371 0 l-5.186 -10.43 l-1.406 10.43 l-1.397 0 z M81.191 8.203 q2.471 0 4.102 1.787 q1.504 1.631 1.504 3.877 q0.02 5.547 0 5.635 l-1.455 0 l0 -2.432 q-1.143 2.129 -4.15 2.383 q-2.461 0 -4.019 -1.675 t-1.558 -3.911 q0 -2.227 1.475 -3.867 q1.631 -1.797 4.102 -1.797 z M81.191 9.551 q-1.709 0 -2.939 1.27 t-1.231 3.066 q0 1.162 0.63 2.236 t2.134 1.816 q3.77 0.84 5.361 -3.428 q0.088 -1.367 -0.293 -2.617 q-0.273 -0.566 -0.752 -1.074 q-1.201 -1.27 -2.91 -1.27 z M93.33 17.93 q-1.016 0.547 -1.992 0.088 q-1.191 -0.908 -1.133 -2.588 l0 -4.531 l2.539 0 l0 -1.182 l-2.549 0 l0 -5.176 l-1.387 0 l0 11.123 q-0.02 1.172 0.537 2.148 q0.918 1.553 2.5 1.641 q0.84 0.029 1.914 -0.381 q-0.166 -0.41 -0.43 -1.143 z M104.971 15.635 l1.152 0.615 q-0.557 1.123 -1.309 1.807 t-1.689 1.04 t-2.119 0.356 q-2.617 0 -4.092 -1.714 t-1.475 -3.872 q0 -2.041 1.25 -3.633 q1.582 -2.031 4.248 -2.031 q2.725 0 4.365 2.08 q1.162 1.465 1.172 3.652 l-9.619 0 q0.039 1.875 1.191 3.071 t2.842 1.196 q0.82 0 1.592 -0.288 t1.314 -0.757 t1.177 -1.523 z M104.971 12.754 q-0.273 -1.104 -0.801 -1.763 t-1.397 -1.065 t-1.826 -0.405 q-1.572 0 -2.705 1.016 q-0.82 0.742 -1.24 2.217 l7.969 0 z"/>
  </g>
</svg>